<svg id="svg" version="1.1" width="400" height="386.24078624078624" xmlns="http://www.w3.org/2000/svg" xmlns:xlink="http://www.w3.org/1999/xlink" style="display: block;"><g id="svgg"><path id="path0" d="M44.831 196.908 L 44.831 314.589 57.778 314.589 L 70.725 314.589 70.725 227.849 C 70.725 149.688,70.836 138.636,71.598 141.357 C 74.364 151.240,104.577 247.284,105.029 247.633 C 105.507 248.002,109.502 248.116,121.932 248.116 C 134.367 248.116,138.356 248.002,138.828 247.633 C 139.199 247.343,145.954 226.209,155.722 194.783 C 173.679 137.007,173.093 138.820,173.569 139.572 C 173.752 139.861,173.904 179.274,173.907 227.343 L 173.913 314.589 198.841 314.589 L 223.768 314.589 223.807 228.502 C 223.828 181.155,223.972 141.981,224.128 141.449 C 224.476 140.260,224.402 140.036,235.374 175.459 C 253.622 234.370,257.694 247.388,257.955 247.649 C 258.282 247.977,289.534 248.247,291.237 247.936 L 292.427 247.720 308.408 196.420 C 317.197 168.206,324.804 143.773,325.311 142.126 C 325.818 140.478,326.396 139.130,326.595 139.130 C 326.818 139.130,326.957 172.599,326.957 226.860 L 326.957 314.589 339.903 314.589 L 352.850 314.589 352.850 196.904 L 352.850 79.219 335.017 79.320 L 317.184 79.420 296.447 147.414 C 285.042 184.810,275.539 215.464,275.330 215.534 C 275.120 215.604,265.847 185.355,254.722 148.314 C 243.598 111.273,234.347 80.575,234.166 80.097 L 233.836 79.227 199.035 79.227 L 164.235 79.227 163.868 80.097 C 163.666 80.575,162.550 84.097,161.387 87.923 C 158.570 97.190,137.030 167.860,130.053 190.725 C 127.004 200.715,124.050 210.411,123.488 212.271 C 122.227 216.440,122.005 216.456,120.806 212.464 C 120.279 210.710,118.459 204.667,116.761 199.034 C 115.063 193.401,106.868 166.097,98.550 138.357 C 90.232 110.618,82.820 85.966,82.078 83.575 L 80.730 79.227 62.780 79.227 L 44.831 79.227 44.831 196.908 " stroke="none" fill="#ffffff" fill-rule="evenodd"></path><path id="path1" d="M0.000 193.237 L 0.000 386.473 200.000 386.473 L 400.000 386.473 400.000 193.237 L 400.000 0.000 200.000 0.000 L 0.000 0.000 0.000 193.237 M82.078 83.575 C 82.820 85.966,90.232 110.618,98.550 138.357 C 106.868 166.097,115.063 193.401,116.761 199.034 C 118.459 204.667,120.279 210.710,120.806 212.464 C 122.005 216.456,122.227 216.440,123.488 212.271 C 124.050 210.411,127.004 200.715,130.053 190.725 C 137.030 167.860,158.570 97.190,161.387 87.923 C 162.550 84.097,163.666 80.575,163.868 80.097 L 164.235 79.227 199.035 79.227 L 233.836 79.227 234.166 80.097 C 234.347 80.575,243.598 111.273,254.722 148.314 C 265.847 185.355,275.120 215.604,275.330 215.534 C 275.539 215.464,285.042 184.810,296.447 147.414 L 317.184 79.420 335.017 79.320 L 352.850 79.219 352.850 196.904 L 352.850 314.589 339.903 314.589 L 326.957 314.589 326.957 226.860 C 326.957 172.599,326.818 139.130,326.595 139.130 C 326.396 139.130,325.818 140.478,325.311 142.126 C 324.804 143.773,317.197 168.206,308.408 196.420 L 292.427 247.720 291.237 247.936 C 289.534 248.247,258.282 247.977,257.955 247.649 C 257.694 247.388,253.622 234.370,235.374 175.459 C 224.402 140.036,224.476 140.260,224.128 141.449 C 223.972 141.981,223.828 181.155,223.807 228.502 L 223.768 314.589 198.841 314.589 L 173.913 314.589 173.907 227.343 C 173.904 179.274,173.752 139.861,173.569 139.572 C 173.093 138.820,173.679 137.007,155.722 194.783 C 145.954 226.209,139.199 247.343,138.828 247.633 C 138.356 248.002,134.367 248.116,121.932 248.116 C 109.502 248.116,105.507 248.002,105.029 247.633 C 104.577 247.284,74.364 151.240,71.598 141.357 C 70.836 138.636,70.725 149.688,70.725 227.849 L 70.725 314.589 57.778 314.589 L 44.831 314.589 44.831 196.908 L 44.831 79.227 62.780 79.227 L 80.730 79.227 82.078 83.575 " stroke="none" fill="#f0141e" fill-rule="evenodd"></path></g></svg>