<?xml version="1.0"?>
<svg width="400" height="539.563862928349" xmlns="http://www.w3.org/2000/svg" xmlns:svg="http://www.w3.org/2000/svg">
 <g id="svgg">
  <path fill-rule="evenodd" fill="#f01419" d="m13.784,13.7c-0.104,0.275 -0.144,18.59 -0.087,40.7l0.103,40.2l57.252,0.101c45.139,0.08 57.337,0.207 57.654,0.6c0.22,0.275 0.883,1.399 1.472,2.499c0.589,1.1 1.695,3.08 2.458,4.4c0.763,1.32 1.659,2.94 1.99,3.6c0.33,0.66 1.143,2.1 1.806,3.2c0.663,1.1 1.472,2.54 1.799,3.2c0.327,0.66 0.936,1.74 1.354,2.4c0.417,0.66 1.2,2.01 1.739,3c0.539,0.99 1.359,2.43 1.823,3.2c0.464,0.77 1.01,1.777 1.215,2.239c0.204,0.461 1.107,2.039 2.005,3.507c0.898,1.467 1.633,2.804 1.633,2.97c0,0.166 0.63,1.259 1.4,2.428c0.77,1.169 1.4,2.358 1.4,2.642c0,0.284 0.27,0.74 0.6,1.014c0.33,0.274 0.6,0.675 0.6,0.891c0,0.216 0.54,1.193 1.2,2.171c0.66,0.978 1.2,1.966 1.2,2.195c0,0.229 0.36,0.874 0.8,1.434c0.44,0.559 0.8,1.263 0.8,1.563c0,0.3 0.142,0.546 0.317,0.546c0.174,0 0.587,0.585 0.917,1.3c0.892,1.929 2.527,4.868 2.841,5.107c0.151,0.115 0.467,0.656 0.703,1.201c0.235,0.546 1.058,2.072 1.83,3.392c0.771,1.32 1.579,2.76 1.796,3.2c0.217,0.44 0.565,1.07 0.773,1.4c0.348,0.551 1.496,2.556 4.813,8.4c0.686,1.21 1.515,2.74 1.842,3.4c0.326,0.66 0.935,1.74 1.353,2.4c0.417,0.66 1.2,2.01 1.739,3c0.539,0.99 1.36,2.43 1.824,3.2c0.465,0.77 0.963,1.67 1.108,2c0.229,0.522 3.538,6.322 4.565,8c0.202,0.33 0.632,1.14 0.955,1.8c0.323,0.66 1.135,2.1 1.804,3.2c0.669,1.1 1.414,2.495 1.657,3.1c0.243,0.605 0.604,1.1 0.802,1.1c0.199,0 0.361,0.349 0.361,0.776c0,0.427 0.198,0.899 0.441,1.049c0.242,0.15 0.698,0.836 1.013,1.524c0.315,0.688 1.115,2.151 1.778,3.251c0.663,1.1 1.472,2.54 1.799,3.2c0.327,0.66 0.943,1.74 1.369,2.4c0.426,0.66 1.042,1.74 1.369,2.4c0.327,0.66 1.14,2.1 1.806,3.2c0.666,1.1 1.407,2.45 1.646,2.999c1.045,2.403 2.1,2.904 2.741,1.301c0.242,-0.605 0.787,-1.64 1.211,-2.3c0.424,-0.66 1.212,-2.01 1.751,-3c0.539,-0.99 1.36,-2.43 1.825,-3.2c0.464,-0.77 1.066,-1.85 1.337,-2.4c0.271,-0.55 1.187,-2.153 2.036,-3.561c0.85,-1.409 1.712,-2.939 1.917,-3.4c0.205,-0.462 0.72,-1.379 1.144,-2.039c0.424,-0.66 1.237,-2.1 1.808,-3.2c0.571,-1.1 1.388,-2.54 1.817,-3.2c0.429,-0.66 0.955,-1.596 1.169,-2.081c0.214,-0.484 0.819,-1.564 1.345,-2.4c0.526,-0.835 1.644,-2.779 2.485,-4.319c0.84,-1.54 1.945,-3.52 2.454,-4.4c0.509,-0.88 1.091,-1.96 1.292,-2.4c0.202,-0.44 0.835,-1.483 1.407,-2.318c0.572,-0.835 1.04,-1.769 1.04,-2.076c0,-0.307 0.191,-0.677 0.425,-0.821c0.233,-0.145 0.593,-0.65 0.799,-1.124c0.206,-0.473 0.542,-1.131 0.748,-1.461c0.879,-1.411 4.332,-7.451 4.572,-8c0.145,-0.33 0.643,-1.23 1.108,-2c0.464,-0.77 1.285,-2.21 1.824,-3.2c0.539,-0.99 1.314,-2.34 1.723,-3c0.749,-1.209 1.46,-2.496 3.206,-5.8c0.524,-0.99 1.055,-1.89 1.182,-2c0.126,-0.11 0.449,-0.65 0.718,-1.2c0.269,-0.55 0.658,-1.27 0.863,-1.6c0.206,-0.33 0.479,-0.87 0.608,-1.2c0.128,-0.33 0.589,-1.14 1.024,-1.8c0.435,-0.66 0.917,-1.47 1.07,-1.8c0.153,-0.33 1.145,-2.073 2.204,-3.874c1.059,-1.8 1.926,-3.372 1.926,-3.493c0,-0.12 0.735,-1.42 1.633,-2.887c0.898,-1.468 1.801,-3.046 2.006,-3.507c0.205,-0.462 0.724,-1.379 1.154,-2.039c0.43,-0.66 1.049,-1.74 1.376,-2.4c0.327,-0.66 1.14,-2.1 1.806,-3.2c0.666,-1.1 1.38,-2.377 1.585,-2.839c0.205,-0.461 1.068,-1.991 1.918,-3.4c0.849,-1.408 1.766,-3.011 2.037,-3.561c0.272,-0.55 0.85,-1.54 1.285,-2.2c0.435,-0.66 0.896,-1.47 1.024,-1.8c0.129,-0.33 0.401,-0.87 0.606,-1.2c0.204,-0.33 0.533,-0.96 0.731,-1.4c0.197,-0.44 0.827,-1.483 1.399,-2.318c0.572,-0.835 1.04,-1.682 1.04,-1.882c0,-0.2 0.463,-1.047 1.03,-1.882l1.03,-1.518l56.87,-0.2l56.87,-0.2l0.11,-39.8c0.06,-21.89 0.012,-40.205 -0.108,-40.7l-0.217,-0.9l-186.605,0c-148.916,0 -186.644,0.101 -186.796,0.5m0.085,104.965c-0.469,0.468 -0.321,407.256 0.148,407.546c0.23,0.142 0.995,-0.181 1.7,-0.718c0.706,-0.537 3.083,-2.201 5.283,-3.699c10.018,-6.819 12.57,-8.564 15,-10.253c3.371,-2.343 9.607,-6.621 14.4,-9.878c3.526,-2.397 6.801,-4.642 14.4,-9.873c1.65,-1.136 4.71,-3.235 6.8,-4.666c2.09,-1.43 5.06,-3.467 6.6,-4.525c3.482,-2.393 9.033,-6.194 13.071,-8.95c1.688,-1.153 3.265,-2.33 3.502,-2.616c0.307,-0.371 0.431,-51.169 0.43,-176.477l-0.001,-175.956l-40.533,-0.102c-22.292,-0.056 -40.653,0.019 -40.8,0.167m292.8,0c-0.148,0.147 -0.269,79.336 -0.269,175.975l0,175.706l1.7,1.378c0.935,0.758 3.95,2.896 6.7,4.751c2.75,1.855 6.53,4.43 8.4,5.722c4.212,2.909 9.7,6.666 15.2,10.405c2.31,1.571 5.55,3.799 7.2,4.952c1.65,1.152 5.52,3.804 8.6,5.891c3.08,2.088 8.57,5.846 12.2,8.352c3.63,2.506 8.94,6.131 11.8,8.056c2.86,1.925 5.879,4.024 6.708,4.664c0.829,0.639 1.774,1.06 2.1,0.935c0.523,-0.2 0.581,-24.255 0.492,-203.54l-0.1,-203.312l-40.231,-0.102c-22.128,-0.056 -40.353,0.019 -40.5,0.167m-187.202,23.602c-0.446,0.446 -0.319,301.144 0.128,302.32c0.474,1.247 -0.124,1.571 8.403,-4.556c3.191,-2.293 7.062,-5.049 8.602,-6.125c1.54,-1.075 4.1,-2.889 5.689,-4.031c1.588,-1.141 5.065,-3.605 7.724,-5.475c2.66,-1.87 6.44,-4.57 8.4,-6c1.96,-1.43 5.104,-3.68 6.987,-5c1.883,-1.32 4.993,-3.521 6.912,-4.892c1.918,-1.37 4.658,-3.318 6.088,-4.327c1.43,-1.009 4.22,-2.983 6.2,-4.387c1.98,-1.403 4.77,-3.38 6.2,-4.392c1.43,-1.012 4.04,-2.876 5.8,-4.141c4.823,-3.469 3.322,-3.813 12.8,2.934c3.387,2.41 5.989,4.238 10.195,7.159c0.987,0.685 2.006,1.426 2.264,1.646c0.259,0.22 1.771,1.3 3.36,2.4c1.589,1.1 4.021,2.81 5.404,3.8c1.383,0.99 2.903,2.07 3.377,2.4c0.474,0.33 2.004,1.41 3.399,2.4c1.395,0.99 5.346,3.78 8.78,6.2c3.433,2.42 9.025,6.38 12.425,8.8c3.401,2.42 8.993,6.38 12.427,8.8c3.434,2.42 7.287,5.165 8.561,6.1c1.275,0.935 2.518,1.7 2.763,1.7c0.326,0 0.445,-40.612 0.445,-151.8l0,-151.8l-2.21,0c-1.904,0 -2.266,0.124 -2.617,0.9c-0.225,0.495 -1.036,1.98 -1.803,3.3c-0.767,1.32 -1.665,2.94 -1.995,3.6c-0.33,0.66 -0.953,1.74 -1.383,2.4c-0.431,0.66 -0.875,1.425 -0.988,1.7c-0.112,0.275 -0.296,0.725 -0.408,1c-0.113,0.275 -0.557,1.04 -0.988,1.7c-0.43,0.66 -1.05,1.74 -1.377,2.4c-0.327,0.66 -1.134,2.1 -1.794,3.2c-0.659,1.1 -1.631,2.818 -2.16,3.817c-2.155,4.076 -3.609,6.617 -4.128,7.214c-0.302,0.348 -0.549,0.922 -0.549,1.277c0,0.355 -0.191,0.763 -0.425,0.907c-0.233,0.145 -0.594,0.65 -0.802,1.124c-0.208,0.473 -1.009,1.941 -1.781,3.261c-0.771,1.32 -1.584,2.76 -1.807,3.2c-0.222,0.44 -0.841,1.52 -1.375,2.4c-0.92,1.515 -1.129,1.916 -1.615,3.1c-0.113,0.275 -0.751,1.4 -1.419,2.5c-0.667,1.1 -1.48,2.54 -1.807,3.2c-0.327,0.66 -0.943,1.74 -1.369,2.4c-0.426,0.66 -1.042,1.74 -1.369,2.4c-0.327,0.66 -1.136,2.1 -1.799,3.2c-0.663,1.1 -1.477,2.54 -1.81,3.2c-0.333,0.66 -0.777,1.47 -0.985,1.8c-0.209,0.33 -0.485,0.87 -0.613,1.2c-0.129,0.33 -0.78,1.5 -1.448,2.6c-0.667,1.1 -1.48,2.54 -1.807,3.2c-0.327,0.66 -0.943,1.74 -1.369,2.4c-0.426,0.66 -1.042,1.74 -1.369,2.4c-0.327,0.66 -1.131,2.1 -1.787,3.2c-0.656,1.1 -1.755,3.08 -2.443,4.4c-0.688,1.32 -1.587,2.94 -1.998,3.6c-0.411,0.66 -1.188,2.01 -1.727,3c-0.539,0.99 -1.348,2.43 -1.797,3.2c-0.45,0.77 -1.325,2.39 -1.944,3.6c-0.62,1.21 -1.228,2.29 -1.353,2.4c-0.124,0.11 -0.653,1.01 -1.177,2c-1.797,3.4 -2.464,4.602 -3.221,5.8c-0.417,0.66 -1.026,1.74 -1.353,2.4c-0.327,0.66 -1.128,2.1 -1.78,3.2c-0.652,1.1 -1.694,2.99 -2.315,4.2c-0.62,1.21 -1.229,2.29 -1.354,2.4c-0.124,0.11 -0.653,1.01 -1.177,2c-1.797,3.4 -2.464,4.602 -3.221,5.8c-0.417,0.66 -1.026,1.74 -1.353,2.4c-0.327,0.66 -1.142,2.1 -1.811,3.2c-0.669,1.1 -1.414,2.495 -1.657,3.1c-0.243,0.605 -0.538,1.1 -0.656,1.1c-0.352,0 -2.107,-2.01 -2.107,-2.414c0,-0.204 -0.735,-1.573 -1.633,-3.04c-0.898,-1.468 -1.801,-3.046 -2.007,-3.507c-0.205,-0.462 -0.787,-1.559 -1.293,-2.439c-0.505,-0.88 -1.614,-2.86 -2.463,-4.4c-0.85,-1.54 -1.874,-3.34 -2.276,-4c-0.402,-0.66 -1.006,-1.74 -1.342,-2.4c-0.335,-0.66 -0.988,-1.83 -1.451,-2.6c-1.273,-2.117 -2.975,-5.168 -4.128,-7.4c-0.569,-1.1 -1.409,-2.63 -1.868,-3.4c-0.46,-0.77 -1.309,-2.259 -1.887,-3.309c-0.579,-1.051 -1.412,-2.521 -1.852,-3.269c-0.44,-0.747 -1.273,-2.228 -1.852,-3.29c-0.578,-1.063 -1.423,-2.562 -1.878,-3.332c-0.454,-0.77 -1.289,-2.3 -1.855,-3.4c-0.566,-1.1 -1.194,-2.27 -1.394,-2.6c-1.089,-1.795 -3.907,-6.738 -4.333,-7.6c-0.272,-0.55 -0.822,-1.54 -1.223,-2.2c-0.4,-0.66 -1.51,-2.64 -2.465,-4.4c-0.955,-1.76 -2.064,-3.74 -2.464,-4.4c-0.399,-0.66 -0.901,-1.596 -1.114,-2.081c-0.213,-0.484 -0.818,-1.564 -1.344,-2.4c-0.526,-0.835 -1.644,-2.779 -2.485,-4.319c-0.84,-1.54 -1.935,-3.52 -2.432,-4.4c-0.497,-0.88 -1.345,-2.41 -1.884,-3.4c-0.54,-0.99 -1.36,-2.43 -1.824,-3.2c-0.464,-0.77 -1.018,-1.796 -1.231,-2.281c-0.213,-0.484 -0.818,-1.564 -1.344,-2.4c-0.526,-0.835 -1.644,-2.779 -2.485,-4.319c-0.84,-1.54 -1.935,-3.52 -2.432,-4.4c-0.497,-0.88 -1.397,-2.5 -2.001,-3.6c-1.495,-2.726 -2.053,-3.73 -3.112,-5.6c-3.566,-6.296 -5.048,-9.056 -5.048,-9.401c0,-0.219 -0.162,-0.399 -0.361,-0.399c-0.198,0 -0.558,-0.495 -0.798,-1.1c-0.421,-1.058 -1.794,-3.55 -3.582,-6.5c-0.467,-0.77 -1.044,-1.85 -1.282,-2.399c-0.909,-2.099 -4.074,-3.371 -5.31,-2.134" id="path1"/>
 </g>
</svg>